<?xml version="1.0" standalone="no"?>
<!DOCTYPE svg PUBLIC "-//W3C//DTD SVG 20010904//EN"
 "http://www.w3.org/TR/2001/REC-SVG-20010904/DTD/svg10.dtd">
<svg version="1.0" xmlns="http://www.w3.org/2000/svg"
 width="1280.000000pt" height="973.000000pt" viewBox="0 0 1280.000000 973.000000"
 preserveAspectRatio="xMidYMid meet">
<metadata>
Created by potrace 1.15, written by Peter Selinger 2001-2017
</metadata>
<g transform="translate(0.000000,973.000000) scale(0.100000,-0.100000)"
fill="#03a9f4" stroke="none">
<path d="M4492 9713 c-11 -11 -24 -43 -31 -78 -20 -96 -88 -365 -140 -550 -27
-93 -72 -267 -101 -385 -100 -413 -151 -606 -191 -728 -22 -68 -39 -125 -37
-127 12 -12 356 -217 531 -316 438 -250 1139 -620 1347 -712 80 -35 222 -109
315 -164 94 -55 341 -189 550 -298 923 -481 1338 -703 1535 -822 63 -38 192
-110 285 -160 94 -50 247 -135 340 -188 94 -53 247 -134 340 -180 161 -78 263
-140 252 -152 -14 -13 -518 -123 -909 -198 -131 -24 -432 -79 -670 -120 -777
-136 -1110 -196 -1320 -241 -113 -24 -279 -53 -367 -64 -188 -24 -205 -27
-411 -74 -85 -19 -247 -51 -360 -71 -540 -95 -873 -157 -955 -180 -49 -14
-335 -66 -635 -116 -300 -49 -684 -119 -855 -154 -170 -36 -440 -87 -600 -114
-159 -28 -398 -71 -530 -96 -132 -26 -487 -93 -790 -150 -951 -179 -1085 -206
-1085 -222 0 -53 84 -152 253 -297 137 -117 252 -232 480 -483 170 -186 287
-298 672 -643 138 -123 466 -438 730 -700 494 -489 717 -702 889 -846 91 -76
100 -82 125 -72 34 13 159 12 196 -2 20 -8 55 -8 119 0 207 23 426 30 1081 31
380 1 800 5 935 8 l245 6 3 27 c4 37 -21 71 -92 126 -64 48 -228 193 -451 397
-298 274 -477 434 -990 890 -910 809 -1508 1337 -1588 1402 -64 53 -118 118
-105 127 2 2 84 20 183 40 287 60 551 120 830 190 143 36 341 83 440 105 287
64 391 89 535 131 74 21 245 62 380 90 270 57 518 113 1420 320 757 174 761
175 1423 315 1059 223 1668 366 2322 546 143 39 295 81 338 93 42 11 77 23 76
26 0 3 -284 147 -630 320 -346 173 -1081 544 -1632 823 -1400 711 -1651 836
-1992 995 -385 180 -882 423 -1105 542 -96 51 -258 136 -360 188 -102 52 -206
110 -232 129 l-48 34 19 27 c15 21 20 51 24 142 3 63 17 261 31 440 14 179 32
435 41 570 22 352 40 531 62 618 5 21 2 22 -55 22 -43 0 -65 -5 -80 -17z"/>
<path d="M5100 9719 c-19 -4 -40 -6 -47 -4 -7 2 -14 1 -17 -3 -6 -10 11 -374
25 -512 6 -63 33 -297 60 -520 42 -352 79 -693 79 -737 0 -33 1082 -542 2245
-1058 617 -273 987 -444 1360 -625 303 -148 466 -222 975 -443 454 -197 1280
-561 1470 -647 229 -104 455 -223 488 -258 27 -28 35 -32 48 -21 10 8 18 9 25
2 6 -6 7 -13 2 -16 -4 -2 -152 -48 -328 -102 -420 -127 -776 -240 -1595 -505
-372 -120 -742 -237 -824 -260 -420 -116 -2658 -852 -2735 -899 -22 -14 -3
-49 42 -78 51 -33 89 -62 422 -324 339 -268 495 -384 995 -745 949 -686 1577
-1132 2261 -1608 l386 -268 1182 -1 c649 -1 1181 -1 1181 1 0 1 -6 17 -14 35
-20 48 -74 91 -189 148 -89 44 -298 166 -545 317 -40 24 -79 53 -85 64 -7 12
-53 40 -103 63 -50 24 -151 81 -225 127 -74 47 -267 166 -429 265 -162 99
-432 266 -600 370 -168 105 -476 290 -685 413 -759 446 -955 564 -1230 745
-77 51 -174 111 -215 135 -41 24 -93 57 -115 75 -22 18 -78 51 -125 75 -85 42
-200 117 -200 130 0 3 62 28 138 54 303 106 753 272 1477 543 1147 430 1354
505 1960 710 187 63 397 137 467 164 70 27 193 69 273 94 81 25 177 60 213 78
81 39 189 136 179 160 -11 30 -122 93 -257 146 -71 28 -203 86 -293 127 -416
194 -733 330 -1680 723 -587 244 -756 316 -1202 511 -154 67 -379 163 -500
212 -326 133 -408 170 -655 293 -301 150 -572 263 -1370 570 -239 92 -496 193
-570 225 -156 67 -541 247 -553 259 -4 4 -44 147 -87 317 -44 170 -107 408
-140 529 -33 121 -96 362 -141 535 -86 339 -93 361 -121 403 -21 29 -24 30
-78 16z"/>
<path d="M4733 9703 c-52 -4 -53 -4 -65 -46 -8 -25 -12 -86 -11 -147 2 -132
-12 -383 -37 -660 -37 -404 -50 -573 -56 -754 l-6 -181 73 -49 c41 -26 261
-140 489 -253 228 -112 703 -348 1055 -523 352 -176 825 -405 1050 -511 390
-181 984 -476 2510 -1244 374 -188 734 -363 801 -389 80 -31 131 -57 149 -76
34 -35 48 -29 -165 -74 -284 -60 -641 -148 -1349 -331 -690 -178 -913 -233
-1406 -345 -276 -63 -594 -141 -1110 -275 -319 -82 -635 -159 -1705 -415 -588
-141 -1385 -336 -1552 -381 -35 -9 -37 -11 -27 -35 15 -42 42 -70 136 -146 48
-40 221 -185 383 -323 778 -662 940 -796 1119 -928 53 -39 148 -120 211 -182
63 -61 201 -184 307 -273 106 -89 233 -200 283 -247 50 -47 105 -92 123 -101
18 -9 91 -74 163 -144 115 -111 244 -222 639 -548 67 -56 105 -80 115 -76 45
21 1981 33 2163 14 174 -18 242 -6 230 41 -3 11 -23 31 -44 44 -21 14 -92 74
-158 134 -66 60 -205 176 -308 257 -243 192 -753 601 -1108 888 -154 125 -368
288 -475 363 -259 181 -296 210 -715 547 -198 159 -454 360 -570 446 -229 170
-370 289 -358 300 4 4 94 28 198 54 458 113 864 232 1855 541 655 204 885 273
1855 550 512 146 1071 309 1243 361 352 106 893 282 905 294 20 18 -88 73
-549 279 -1318 588 -1757 792 -2769 1284 -187 90 -529 250 -760 355 -231 104
-514 233 -630 285 -115 52 -320 147 -455 210 -135 63 -297 136 -360 162 -124
51 -306 140 -490 240 -160 87 -291 152 -355 176 -30 11 -65 33 -80 50 -23 28
-24 32 -10 52 31 44 16 239 -65 887 -57 456 -65 528 -80 705 -7 78 -16 133
-23 137 -12 8 -102 8 -204 1z"/>
</g>
</svg>
